<svg width="48" height="48" fill="none" xmlns="http://www.w3.org/2000/svg"><g clip-path="url(#clip0_1859_15037)" fill="#FEFEFE"><path d="M31.188 9.728h2.034c1.187 0 2.326.19 3.39.549-.116-1.743-.519-3.407-1.21-4.607a3.455 3.455 0 00-2.187-1.644 3.452 3.452 0 00-2.698.442l-1.665 1.056a7.293 7.293 0 012.336 4.204zM.182 24.474c0 .776.629 1.406 1.405 1.406h.694A8.63 8.63 0 000 31.732v3.399h19.783v-3.22h-2.027a1.406 1.406 0 010-2.811h2.027v-6.032H1.587c-.776 0-1.405.63-1.405 1.406zm7.36 4.625h3.504a1.406 1.406 0 010 2.812H7.542a1.406 1.406 0 010-2.812zM24 6.482a4.49 4.49 0 00-4.307 3.246h8.615a4.49 4.49 0 00-4.307-3.246zm-7.188 3.246a7.292 7.292 0 012.337-4.204l-1.666-1.056a3.453 3.453 0 00-2.697-.442 3.455 3.455 0 00-2.188 1.644c-.69 1.199-1.093 2.862-1.21 4.603a10.575 10.575 0 013.379-.545h2.045zM8.05 16.653l-1.99 3.902a11.473 11.473 0 012.604-.298h11.12v-7.718h-5.017c-2.892 0-5.402 1.538-6.716 4.114zm20.167-4.113v7.717h11.119c.891 0 1.759.102 2.592.295l-1.991-3.901c-1.314-2.575-3.825-4.112-6.715-4.112h-5.005zm-5.623 0h2.811v22.59h-2.811V12.54zm23.124 13.34h.695a1.406 1.406 0 000-2.812H28.217V29.1h2.018a1.406 1.406 0 010 2.811h-2.018v3.22h19.782v-3.399a8.63 8.63 0 00-2.28-5.852zm-5.246 6.031h-3.146a1.406 1.406 0 010-2.811h3.146a1.406 1.406 0 010 2.811zM.002 40.81a3.27 3.27 0 003.266 3.267h4.866A3.27 3.27 0 0011.4 40.81v-2.868H.002v2.868zm36.598 0a3.27 3.27 0 003.266 3.267h4.866a3.27 3.27 0 003.266-3.267v-2.868H36.6v2.868z"/></g><defs><clipPath id="clip0_1859_15037"><path fill="#fff" d="M0 0h48v48H0z"/></clipPath></defs></svg>