<svg width="96" height="48" fill="none" xmlns="http://www.w3.org/2000/svg"><path d="M19.823 15.715l-2.417 1.88s.25-1.37.742-1.88c.744-.772 1.675 0 1.675 0z" fill="#EBEDF0"/><path d="M70.32 24.806c-2.77-.746-7.304-.746-10.074 0L9.742 37.066c-7.409 1.384 14.827 8.923 23.247 7.152 1.58-.333 3.514-.759 7.303-1.737 7.533-1.945 27.822-7.267 32.461-8.801 6.347-2.1 9.391-3.004 10.28-3.607.888-.604 1.224-1.516-1.546-2.262L70.32 24.806z" fill="#576485"/><path d="M64.08 24.868c-.892 3.322.361 6.542 2.8 7.194 2.438.652 5.139-1.513 6.032-4.835.892-3.32-.36-6.542-2.8-7.193-2.438-.652-5.138 1.513-6.031 4.834z" fill="#020206"/><path d="M66.877 32.063l3.6.961 3.232-12.027-3.6-.962-3.232 12.028zM26.221 35c-.892 3.322.361 6.543 2.8 7.194 2.438.652 5.138-1.513 6.031-4.834.893-3.322-.36-6.542-2.799-7.194-2.438-.651-5.139 1.513-6.032 4.835z" fill="#020206"/><path d="M29.022 42.194l3.6.962 3.231-12.028-3.599-.961-3.232 12.027z" fill="#020206"/><path d="M76.988 26.821l-6.335-1.995-27.444 8.338-4.142 5.217-8.989-1.457.886-7.607 41.833-11.5 6.327 4.189-2.136 4.815z" fill="#020206"/><path d="M80.675 15.068l-.872-4.537s-.605-.25-1.676-.602C72.03 7.808 50.753.984 38.545 4.507 27.668 7.646 16.915 18.13 16.915 18.13s-6.365 3.278-9.516 5.8c-3.375 2.704-4.248 9.333-2.567 11.775 2.349 3.41 16.712 5.506 18.228 5.689 2.493.3 4.098.3 5.635 0l-.015-1.004a17.496 17.496 0 01.3-4.694c.767-3.845 3.996-6.42 6.662-5.985 2.539.416 4.265 3.197 3.423 8.67l3.837-1.794c6.33-2.115 13.192-3.984 20.733-5.54l2.808-.332c0-1.707.12-3.212.588-5.093.945-3.797 4.132-6.13 6.723-5.437 2.443.652 3.65 3.38 3.231 6.636.844-.773 1.627-1.355 2.977-2.93.487-.57 1.32-3.706 1.317-6.643 0-.914-.605-2.18-.605-2.18z" fill="#EBEDF0"/><mask id="a" style="mask-type:luminance" maskUnits="userSpaceOnUse" x="4" y="3" width="78" height="39"><path d="M80.675 15.068l-.872-4.537s-.605-.25-1.676-.602C72.03 7.808 50.753.984 38.545 4.507 27.668 7.646 16.915 18.13 16.915 18.13s-6.365 3.278-9.516 5.8c-3.375 2.704-4.248 9.333-2.567 11.775 2.349 3.41 16.712 5.506 18.228 5.689 2.493.3 4.098.3 5.635 0l-.015-1.004a17.496 17.496 0 01.3-4.694c.767-3.845 3.996-6.42 6.662-5.985 2.539.416 4.265 3.197 3.423 8.67l3.837-1.794c6.33-2.115 13.192-3.984 20.733-5.54l2.808-.332c0-1.707.12-3.212.588-5.093.945-3.797 4.132-6.13 6.723-5.437 2.443.652 3.65 3.38 3.231 6.636.844-.773 1.627-1.355 2.977-2.93.487-.57 1.32-3.706 1.317-6.643 0-.914-.605-2.18-.605-2.18z" fill="#fff"/></mask><g mask="url(#a)"><path d="M54.616 9.266c9.182-3.094 15.392-1.447 20.266-.257l.22-.09c-8.354-2.683-25.909-7.485-36.56-4.412-2.736.79-5.464 2.044-8.016 3.48l-.415.269a70.236 70.236 0 00-6.362 4.166 80.41 80.41 0 00-4.16 3.309c-.9.77-1.764 1.546-2.6 2.328-.05.046-.075.072-.075.072 1.74 2.875 8.157 5.153 20.345 5.433 0 0 6.63-10.682 17.357-14.298z" fill="#020206"/><path d="M57.036 8.54c-.655.188-1.178.33-2.005.593-5.264-1.912-10.9-3.404-16.879-4.509l2.152-.542c5.527.89 11.075 2.44 16.733 4.458zM32.871 6.75l-1.754.91c3.28 1.86 9.707 3.336 17.318 4.627.44-.297.968-.605 1.577-.958-7.034-1.358-13.059-2.845-17.14-4.58zM17.895 18.201c2.263 2.64 9.037 4.081 18.815 4.725 0 0 1.066-2.684-6.595-4.43-8.169-1.862-12.22-.296-12.22-.296v.001zm15.359-7.097l4.265 1.14 1.619-1.475-4.265-1.14-1.62 1.476z" fill="#263762"/><path opacity=".2" d="M4.306 32.73c-.296-8.918 10.378-11.24 17.35-11.38 4.72-5.02 16.495-19.48 33.238-17.836l8.59-1.142-9.585-1.07-19.76 2.78L.99 27.356l3.317 5.374z" fill="#fff"/><path d="M79.802 10.53s-6.526 3.856-25.873 10.325c-5.917 1.979-17.016 4.537-22.338 7.13-5.321 2.594-9.613 8.412-12.289 10.133-2.676 1.72-12.036-1.257-13.69-2.725-2.076-1.843-2.527-5.108-2.527-5.108l-.124 7.41 22.2 7.477 59.99-15.921-5.348-18.72h-.001z" fill="#C4C9D2"/></g><path d="M39.067 24.154c10.804-3.241 21.645-6.348 31.384-10.368.877-.362 2.324-.82 2.611-1.5.216-.509.478-1.432.694-2.249 0 0-8.415-3.288-17.632-.228-12.31 4.086-17.058 14.345-17.058 14.345h.001z" fill="#020206"/><path d="M67.585 25.805c-.893 3.321.36 6.542 2.799 7.193 2.438.652 5.139-1.512 6.031-4.834.893-3.321-.36-6.542-2.799-7.194-2.438-.651-5.138 1.513-6.031 4.835z" fill="#263762"/><path d="M68.703 26.104c-.666 2.48.27 4.884 2.09 5.37 1.82.486 3.836-1.13 4.503-3.61.666-2.479-.27-4.883-2.09-5.37-1.82-.486-3.836 1.13-4.503 3.61z" fill="#E5E7EC"/><path d="M73.978 26.782l.834 1.313c.229.36-.092.988-.489.957l-1.446-.114c-.172-.013-.357.11-.467.312l-.93 1.698c-.256.465-.775.397-.792-.105l-.06-1.828c-.006-.219-.12-.38-.289-.413l-1.409-.263c-.386-.072-.386-.743 0-1.022l1.41-1.016a.748.748 0 00.288-.567l.06-1.86c.017-.51.536-.857.791-.527l.93 1.2c.111.143.296.168.468.062l1.446-.887c.397-.242.718.215.49.697l-.835 1.758c-.099.21-.099.448 0 .605z" fill="#263762"/><path d="M71.277 26.791c-.145.543.059 1.069.457 1.175.399.106.84-.247.985-.79.146-.542-.058-1.067-.457-1.174-.398-.106-.839.247-.985.79z" fill="#E5E7EC"/><path d="M29.725 35.937c-.893 3.321.36 6.542 2.8 7.194 2.438.651 5.138-1.513 6.031-4.835.892-3.321-.36-6.542-2.799-7.193-2.438-.652-5.139 1.512-6.032 4.834z" fill="#263762"/><path d="M30.844 36.236c-.667 2.48.27 4.884 2.09 5.37 1.82.486 3.836-1.13 4.502-3.609.667-2.48-.269-4.884-2.09-5.37-1.82-.486-3.836 1.13-4.502 3.61z" fill="#E5E7EC"/><path d="M36.12 36.914l.833 1.313c.228.36-.093.989-.49.957l-1.445-.114c-.173-.013-.357.11-.468.312l-.93 1.698c-.255.465-.775.397-.791-.104l-.06-1.829c-.007-.218-.121-.38-.289-.412l-1.409-.263c-.386-.072-.386-.744 0-1.022l1.41-1.017a.749.749 0 00.288-.566l.06-1.861c.016-.51.536-.856.79-.528l.931 1.2c.111.144.296.168.468.062l1.446-.886c.396-.243.717.214.489.697l-.834 1.758c-.1.21-.1.448 0 .605z" fill="#263762"/><path d="M33.418 36.924c-.145.542.059 1.068.457 1.174.398.107.84-.247.985-.79.145-.542-.059-1.068-.457-1.174-.398-.107-.84.247-.985.789z" fill="#E5E7EC"/><path d="M55.328 10.565l.902 7.855 1.946-.636-1.08-7.795-1.768.576zm13.487 3.398l1.323-.537-1.415-4.227-1.239-.152 1.33 4.915z" fill="#263762"/><path d="M56.242 9.79c.365 2.825.977 8.806.977 8.806s.874 1.093.7 2.735c-.281 2.66-.642 7.427-.397 9.247" stroke="#020206" stroke-width=".5" stroke-miterlimit="10"/><path d="M68.074 8.792l1.52 5.343c.76 1.172.7 2.756.186 3.89l-4.605 8.985c-.488 1.075-1.336 1.874-2.246 2.117l-21.562 5.79c-.797-4.512-1.032-9.481-2.27-10.793m-1.878-.572s-.092.531-.897.97c-.893.485-8.682 3.736-10.633 4.645-2.448 1.142-5.714 1.866-7.878 1.615-3.396-.394-8.353-1.772-9.537-2.363-1.294-.644-2.651-2.112-2.02-2.776m74.42-10.575s-3.322 1.56-3.695 1.723c-.372.162-.582.587-.74 1.166-.159.579-.731 3.23-.731 3.23" stroke="#020206" stroke-width=".5" stroke-miterlimit="10"/><path d="M27.426 28.395s1.738.642 2.193.98c.559.413 1.415 1.243 1.496 2.181" stroke="#020206" stroke-width=".5" stroke-miterlimit="10"/><path d="M17.104 36.452c.446-.048-.61-1.623-.761-1.906-1.283-2.401-4.001-2.75-6.732-3.486-2.448-.66-2.885.27-3.207.738-.124.18-.594 1.1-.302 1.325.679.524 2.243 1.202 4.506 1.853 2.45.704 5.98 1.53 6.496 1.474v.002z" fill="#CBCFD7"/><path d="M12.725 28.564c-.167.348-.533.521-.819.386-.286-.136-.381-.528-.215-.878.167-.348.533-.521.819-.386.286.136.382.529.215.878zm67.409-16.277s-.935.682-1.378 1.09c-.597.55-.714 1.69-1.084 3.106l3.027-1.361-.565-2.835zM27.43 28.38c-2.208-.172-6.585-.357-9.654.483-.544.15-1.332 1.285-1.546 1.728 0 0 3.51.767 5.512.309 2.65-.607 5.687-2.52 5.687-2.52zm26.659-6.437l2.92-1.068-.109.698-2.97 1.108.159-.738zm12.504-4.65l2.886-1.157-.088.701-2.934 1.198.136-.742z" fill="#667290"/><path opacity=".2" d="M39.919 23.564c14.607-9.79 21.787-11.803 33.36-13.276 0 0-7.905-3.14-16.967-.082-11.872 4.007-16.394 13.358-16.394 13.358z" fill="#fff"/><path d="M40.75 24.304s-.261.068.398.514c.718.485 3.284 1.314 3.943 1.051.925-.368 1.224-2.382.75-2.54-1.188-.396-1.606-.777-2.004-.754-.398.023-3.086 1.729-3.086 1.729z" fill="#BEC3CD"/><path d="M39.703 23.983s2.004-2.11 2.943-2.128c.73-.014 2.436.054 2.83 1.018.396.965-.797 1.484-2.312 1.795-1.516.31-2.55.074-2.919-.124a1.39 1.39 0 01-.542-.561z" fill="#EBEDF0"/><mask id="b" style="mask-type:luminance" maskUnits="userSpaceOnUse" x="39" y="21" width="7" height="4"><path d="M39.703 23.983s2.004-2.11 2.943-2.128c.73-.014 2.436.054 2.83 1.018.396.965-.797 1.484-2.312 1.795-1.516.31-2.55.073-2.919-.124-.368-.197-.542-.561-.542-.561z" fill="#fff"/></mask><g mask="url(#b)"><path d="M44.6 21.935s.13 1.046-1.566 1.452c-.882.21-3.675.638-3.675.638l.68 1.23 5.614.106.727-2.41-1.027-1.382-.754.366z" fill="#C4C9D2"/></g><path d="M8.348 35.304l5.218 1.395v-2.19l-5.218-1.395v2.19z" fill="#020206"/><path d="M8.02 35.377l5.22 1.394v-2.19l-5.22-1.394v2.19z" fill="#fff"/><path d="M8.218 28.45s.102-1.614-.072-1.87c-.425-.62-.507-.901-.444-1.547.087-.88.2-1.469.2-1.469S5.51 25.392 5.63 26.648c.082.852 2.589 1.803 2.589 1.803z" fill="#667290"/></svg>