<svg width="48" height="48" fill="none" xmlns="http://www.w3.org/2000/svg"><g clip-path="url(#clip0_4737_6256)" fill="#45D5EC"><path d="M22.615 18.54v-7.053h-3a6.017 6.017 0 00-5.806 4.457l-.723 2.596h9.529zm2.815 0h9.529l-.723-2.596a6.017 6.017 0 00-5.806-4.458h-3v7.054zm-14.998 2.812a6.016 6.016 0 00-3.037 5.223v3.06h2.39a5.672 5.672 0 015.662-5.457 5.672 5.672 0 015.66 5.456h5.782a5.672 5.672 0 015.66-5.456 5.672 5.672 0 015.661 5.456h2.437v-3.059a6.016 6.016 0 00-3.038-5.223H10.432z"/><path d="M2.814 23.718A21.05 21.05 0 019.22 8.82a21.055 21.055 0 0115.064-6.005 21.195 21.195 0 0114.233 5.753L35.8 8.532l-.037 2.812 7.405.099.1-7.406L40.455 4l-.032 2.5A24.007 24.007 0 0024.32.003 23.84 23.84 0 007.257 6.805 23.843 23.843 0 00.002 23.68a23.764 23.764 0 002.332 10.656l2.538-1.213a20.974 20.974 0 01-2.058-9.405zm42.37.565A21.05 21.05 0 0138.78 39.18a21.055 21.055 0 01-15.063 6.006 21.195 21.195 0 01-14.233-5.753l2.714.036.038-2.812-7.406-.1-.099 7.407L7.543 44l.033-2.502a24.007 24.007 0 0016.102 6.499 23.84 23.84 0 0017.063-6.803 23.843 23.843 0 007.255-16.875 23.763 23.763 0 00-2.331-10.655l-2.538 1.212a20.971 20.971 0 012.057 9.406z"/><path d="M15.447 32.698a2.854 2.854 0 100-5.707 2.854 2.854 0 000 5.707zm17.106-5.708a2.857 2.857 0 00-2.854 2.854 2.857 2.857 0 002.854 2.854 2.857 2.857 0 002.853-2.854 2.857 2.857 0 00-2.853-2.853z"/></g><defs><clipPath id="clip0_4737_6256"><path fill="#fff" d="M0 0h48v48H0z"/></clipPath></defs></svg>