<svg width="48" height="48" fill="none" xmlns="http://www.w3.org/2000/svg"><g clip-path="url(#clip0_4737_5767)" fill="#45D5EC"><path d="M31.188 9.727h2.034c1.187 0 2.326.19 3.39.55-.116-1.743-.519-3.408-1.21-4.607a3.455 3.455 0 00-2.187-1.644 3.452 3.452 0 00-2.698.441l-1.665 1.057a7.293 7.293 0 012.336 4.203zM.182 24.474c0 .776.629 1.406 1.405 1.406h.694A8.63 8.63 0 000 31.732v3.399h19.783v-3.22h-2.027a1.406 1.406 0 010-2.812h2.027v-6.03H1.587c-.776 0-1.405.629-1.405 1.405zm7.36 4.625h3.504a1.406 1.406 0 010 2.812H7.542a1.406 1.406 0 010-2.812zM23.999 6.482a4.49 4.49 0 00-4.308 3.245h8.616a4.49 4.49 0 00-4.308-3.245zM16.81 9.727a7.292 7.292 0 012.337-4.203L17.48 4.467a3.453 3.453 0 00-2.697-.44 3.456 3.456 0 00-2.188 1.643c-.69 1.198-1.093 2.861-1.21 4.603a10.575 10.575 0 013.379-.546h2.045zm-8.761 6.926l-1.99 3.902a11.473 11.473 0 012.603-.298h11.12v-7.718h-5.017c-2.892 0-5.402 1.538-6.716 4.114zm20.17-4.114v7.717h11.119c.891 0 1.759.103 2.592.296l-1.99-3.902c-1.314-2.575-3.825-4.112-6.715-4.112H28.22zm-5.625 0h2.811V35.13h-2.811V12.539zM45.72 25.88h.695a1.406 1.406 0 000-2.812H28.219V29.1h2.018a1.406 1.406 0 010 2.812H28.22v3.22H48v-3.4a8.63 8.63 0 00-2.28-5.851zm-5.246 6.031h-3.146a1.406 1.406 0 010-2.812h3.146a1.406 1.406 0 010 2.812zM.004 40.81a3.27 3.27 0 003.266 3.267h4.866a3.27 3.27 0 003.266-3.267v-2.868H.004v2.868zm36.594 0a3.27 3.27 0 003.266 3.267h4.866a3.27 3.27 0 003.266-3.267v-2.868H36.598v2.868z"/></g><defs><clipPath id="clip0_4737_5767"><path fill="#fff" d="M0 0h48v48H0z"/></clipPath></defs></svg>