<svg width="96" height="48" fill="none" xmlns="http://www.w3.org/2000/svg"><path d="M71.559 26.873c-2.966-.8-7.818-.8-10.783 0L6.72 40.034c-7.929 1.487 15.87 9.58 24.881 7.678 1.69-.356 3.761-.814 7.817-1.864C47.48 43.76 69.196 38.047 74.16 36.4c6.793-2.254 10.051-3.225 11.003-3.873.95-.648 1.31-1.627-1.655-2.428l-11.951-3.226z" fill="#576485"/><path d="M18.713 17.614l-3.642 3.294s-.488-2.659.142-3.314c.95-.99 3.5.02 3.5.02z" fill="#EBEDF0"/><path d="M33.531 19.974l1.678.453a.48.48 0 01.353.463v4.216a.509.509 0 01-.408.5l-.333.066a.59.59 0 01-.264-.009l-1.49-.393a.68.68 0 01-.505-.66v-3.779c0-.276.121-.537.33-.715a.704.704 0 01.639-.142z" fill="#263762"/><mask id="a" style="mask-type:luminance" maskUnits="userSpaceOnUse" x="32" y="19" width="4" height="7"><path d="M33.531 19.974l1.678.453a.48.48 0 01.353.463v4.216a.509.509 0 01-.408.5l-.333.066a.59.59 0 01-.264-.009l-1.49-.393a.68.68 0 01-.505-.66v-3.779c0-.276.121-.537.33-.715a.704.704 0 01.639-.142z" fill="#fff"/></mask><g mask="url(#a)"><path d="M35.42 25.9h-.553v-4.852l.553-.268v5.12z" fill="#020206"/></g><path d="M65.837 27.354c-.874 3.287.353 6.473 2.74 7.117 2.388.645 5.032-1.496 5.906-4.782.874-3.286-.353-6.473-2.74-7.117-2.388-.645-5.033 1.497-5.906 4.782z" fill="#020206"/><path d="M68.578 34.471l3.524.952 3.166-11.9-3.524-.951-3.166 11.9zM24.649 38.48c-.874 3.287.353 6.474 2.74 7.118 2.388.644 5.033-1.497 5.907-4.783.874-3.286-.353-6.472-2.74-7.117-2.388-.645-5.033 1.496-5.907 4.782z" fill="#020206"/><path d="M27.39 45.598l3.525.951 3.165-11.9-3.524-.952-3.165 11.901z" fill="#020206"/><path d="M78.383 29.04l-4.176-.493-32.883 8.33-4.166 5.3-9.04-1.48.89-7.73L80.526 19l.234 5.71-2.377 4.33z" fill="#020206"/><path d="M82.639 19.95s-.294-4.908-1.356-7.824c-1.664-4.572-4.254-7.36-4.912-7.577C73.87 3.669 59.914-.182 58.598.007c-4.16.597-19.423 4.391-26.034 6.37-3.137.938-2.997.559-6.483 2.885-3.487 2.326-11.362 11.748-11.362 11.748s-4.98 2.465-7.747 5.646c-2.01 2.313-1.715 4.128-1.89 4.408-1.833 2.95-1.027 6.778.14 8.571 1.612 2.475 8.51 4.498 17.17 5.382 1.75.179 2.848-.189 4.32-.599-.098-1.572-.332-3.273.004-4.969.772-3.906 3.537-6.917 7-6.429 2.562.36 4.637 3.596 3.79 9.158L68.04 33.47s-.438-3.735.033-5.647c.95-3.858 4.454-6.627 7.06-5.923 2.457.663 3.87 3.833 3.449 7.142.848-.785 2.087-.531 3.443-2.132.49-.578 1.226-2.31 1.224-5.293 0-.929-.612-1.666-.612-1.666h.002z" fill="#EBEDF0"/><mask id="b" style="mask-type:luminance" maskUnits="userSpaceOnUse" x="4" y="0" width="80" height="46"><path d="M82.639 19.95s-.294-4.908-1.356-7.824c-1.664-4.572-4.254-7.36-4.912-7.577C73.87 3.669 59.914-.182 58.598.007c-4.16.597-19.423 4.391-26.034 6.37-3.137.938-2.997.559-6.483 2.885-3.487 2.326-11.362 11.748-11.362 11.748s-4.98 2.465-7.747 5.646c-2.01 2.313-1.715 4.128-1.89 4.408-1.833 2.95-1.027 6.778.14 8.571 1.612 2.475 8.51 4.498 17.17 5.382 1.75.179 2.848-.189 4.32-.599-.098-1.572-.332-3.273.004-4.969.772-3.906 3.537-6.917 7-6.429 2.562.36 4.637 3.596 3.79 9.158L68.04 33.47s-.438-3.735.033-5.647c.95-3.858 4.454-6.627 7.06-5.923 2.457.663 3.87 3.833 3.449 7.142.848-.785 2.087-.531 3.443-2.132.49-.578 1.226-2.31 1.224-5.293 0-.929-.612-1.666-.612-1.666h.002z" fill="#fff"/></mask><g mask="url(#b)"><path d="M47.323 10.021L34.555 6.6l15.77-3.811L63.091 6.21l-15.77 3.81z" fill="#263762"/><path d="M43.515 13.925c-7.143-1.113-14.72-3.294-17.434-4.664-2.83 2.146-9.305 8.206-11.362 11.748 2.517 2.089 12.863 4.632 18.68 5.042 3.561-4.773 7.067-9.336 10.116-12.126z" fill="#020206"/><path d="M15.4 20.81c2.177 1.215 10.043 3.78 18.095 4.742 0 0 1.293-1.893.442-2.514-2.866-2.092-7.279-1.091-10.576-1.85-7.559-1.741-7.963-.379-7.963-.379h.001zm12.87-7.295l3.946 1.065 1.446-1.393-3.946-1.065-1.447 1.393z" fill="#263762"/><path d="M85.37 12.774c-10.239 4.204-42.112 14-50.135 15.924-3.886.933-7.196 2.18-9.257 5.459-1.762 2.804-1.725 6.165-5.868 6.67-3.855.47-15.852-2.174-17.556-5.675-.551-1.134 1.422 7.877 1.422 7.877l17.083 3.958 64.712-18.44-.4-15.773z" fill="#C4C9D2"/><path opacity=".2" d="M73.12.926C70.987 2.51 33.672 6.313 29.362 10.73c-3.315 3.397-6.075 8.27-7.931 13.05-5.307 1.48-11.037.39-16.452 4.741L25.445 3.363l32.712-5.615L73.119.926z" fill="#fff"/></g><path d="M78.693 16.279l-11.05 3.307-.1-.966 11.05-3.308.1.967z" fill="#263762"/><path d="M81.8 13.737c.405 1.657.654 3.828.839 6.213l-1.38.507-.118-4.81c-.02-.627.66-1.91.66-1.91zm-22.747 8.87l-2.795.799v1.207l2.795-.799v-1.207zm-5.067 1.411l-2.795.8v1.206l2.795-.799v-1.207z" fill="#667290"/><path d="M28.083 39.46c-.874 3.262.353 6.425 2.74 7.065 2.388.64 5.032-1.486 5.906-4.748.874-3.262-.353-6.425-2.74-7.065-2.388-.64-5.032 1.485-5.906 4.748z" fill="#263762"/><path d="M29.044 39.716c-.68 2.539.274 5 2.132 5.498 1.859.499 3.916-1.156 4.596-3.694.68-2.539-.275-5-2.133-5.498-1.858-.498-3.916 1.156-4.596 3.694z" fill="#E5E7EC"/><path d="M29.55 39.853c-.578 2.154.233 4.244 1.81 4.667 1.576.423 3.323-.982 3.9-3.136.578-2.155-.233-4.244-1.81-4.667-1.577-.423-3.323.982-3.9 3.136z" fill="#020206"/><path d="M34.344 40.42l.817 1.289c.224.353-.09.971-.479.94l-1.415-.112c-.169-.013-.35.108-.459.306l-.91 1.668c-.25.457-.76.39-.776-.103l-.058-1.796c-.007-.214-.119-.373-.284-.405l-1.38-.258c-.377-.071-.377-.73 0-1.004l1.38-.998a.736.736 0 00.284-.557l.058-1.827c.016-.501.525-.841.775-.518l.911 1.179c.109.14.29.164.459.06l1.415-.87c.389-.239.703.21.48.683l-.818 1.727c-.097.206-.097.44 0 .594v.001z" fill="#E5E7EC"/><path d="M31.698 40.429c-.142.533.058 1.05.448 1.154.39.105.822-.243.964-.775.143-.533-.058-1.05-.447-1.154-.39-.105-.822.242-.965.775zM69.27 28.333c-.874 3.263.353 6.425 2.74 7.066 2.388.64 5.033-1.486 5.907-4.749.874-3.262-.353-6.425-2.74-7.065-2.388-.64-5.033 1.486-5.907 4.748z" fill="#263762"/><path d="M70.231 28.59c-.68 2.538.275 5 2.133 5.498 1.858.498 3.915-1.156 4.595-3.695.68-2.538-.274-5-2.133-5.498-1.858-.498-3.915 1.156-4.595 3.695z" fill="#E5E7EC"/><path d="M70.737 28.726c-.577 2.155.233 4.244 1.81 4.667 1.577.423 3.324-.981 3.9-3.136.578-2.155-.232-4.244-1.81-4.667-1.576-.422-3.323.982-3.9 3.136z" fill="#020206"/><path d="M75.532 29.293l.817 1.29c.224.352-.09.97-.479.94l-1.416-.112c-.168-.014-.35.107-.458.306l-.911 1.667c-.25.458-.76.39-.775-.102l-.059-1.796c-.007-.214-.118-.374-.283-.405l-1.38-.259c-.378-.07-.378-.73 0-1.003l1.38-.999a.736.736 0 00.283-.556l.059-1.828c.016-.5.525-.84.775-.518l.91 1.179c.11.14.29.165.46.06l1.415-.87c.388-.239.703.21.479.684l-.817 1.727c-.097.206-.097.44 0 .593v.002z" fill="#E5E7EC"/><path d="M72.886 29.302c-.143.533.057 1.05.448 1.155.39.104.821-.243.964-.776.143-.532-.058-1.05-.448-1.154-.39-.104-.821.243-.964.775z" fill="#263762"/><path d="M7.96 39.254l5.288 1.416v-2.226l-5.287-1.417v2.227z" fill="#020206"/><path d="M7.629 39.327l5.288 1.417V38.52l-5.288-1.417v2.225z" fill="#fff"/><path d="M35.203 27.28l40.198-12.303c1.574-.477 2.62-1.03 1.906-2.512-1.096-2.271-2.657-6.132-5.386-5.749-3.431.482-22.07 4.4-25.827 6.804-4.809 3.077-10.89 13.76-10.89 13.76z" fill="#020206"/><path d="M15.902 35.408c2.259.22 5.157-.37 6.49-.811 1.334-.44 4.277-2.705 1.519-2.588-2.758.117-5.51.67-6.322.941-.812.272-1.686 2.457-1.686 2.457zm-8.714-2.356c-1.004-.35-2.208-1.416-2.044-2.432.228-1.612.548-2.095.98-2.82.378-.633.968 2.021 1.12 2.595.153.573-.056 2.657-.056 2.657z" fill="#667290"/><path d="M53.467 21.2l1.951-.643-1.13-8.921-1.675.476.854 9.088zm12.72-3.826l1.95-.643-2.296-7.965-1.575.378 1.92 8.23z" fill="#263762"/><path d="M43.516 13.925s2.479-2.001 6.216-3.306c2.501-.872 20.01-5.326 26.354-6.153M65.054 8.792l2.314 8.724c.994 3.862-.533 14.283-1.815 14.785-1.282.5-26.682 7.523-26.682 7.523l-.7-13.446-.335-2.627" stroke="#020206" stroke-width=".5" stroke-miterlimit="10"/><path d="M54.9 35.359c.826-5.529.662-10.506-.46-13.918l-.971-9.795M23.91 32.01s6.775-3.857 7.742-4.359c.912-.473 1.313-1.019 1.746-1.6m43.778-2.874s.657-1.472 1.52-1.793c.862-.32 3.944-1.421 3.944-1.421" stroke="#020206" stroke-width=".5" stroke-miterlimit="10"/><path opacity=".2" d="M37.563 25.515c9.998-7.653 24.685-10.797 37.704-14.513 0 0-1.325-3.74-3.779-3.358-2.978.465-20.975 4.418-24.364 6.585-4.334 2.774-9.562 11.286-9.562 11.286z" fill="#fff"/><path d="M38.734 25.762s-.296.077.449.582c.812.55 3.711 1.49 4.457 1.192 1.045-.417 1.382-2.7.847-2.879-1.342-.45-1.815-.88-2.265-.855-.45.026-3.488 1.96-3.488 1.96z" fill="#BEC3CD"/><path d="M37.55 25.397s2.265-2.39 3.326-2.412c.826-.015 2.753.062 3.2 1.155.446 1.094-.901 1.682-2.614 2.034-1.713.351-2.883.084-3.299-.14-.415-.224-.612-.637-.612-.637z" fill="#EBEDF0"/><mask id="c" style="mask-type:luminance" maskUnits="userSpaceOnUse" x="37" y="22" width="8" height="5"><path d="M37.55 25.397s2.265-2.39 3.326-2.412c.826-.015 2.753.062 3.2 1.155.446 1.094-.901 1.682-2.614 2.034-1.713.351-2.883.084-3.299-.14-.415-.224-.612-.637-.612-.637z" fill="#fff"/></mask><g mask="url(#c)"><path d="M43.082 23.077s.148 1.186-1.77 1.645c-.995.24-4.152.724-4.152.724l.768 1.394 6.344.12.822-2.73-1.16-1.568-.852.415z" fill="#C4C9D2"/></g><path d="M15.904 35.408c-3.715-.732-6.047-1.397-8.713-2.356l-.21.372a1.73 1.73 0 001.213 1.947 76.922 76.922 0 005.848 1.496c.812.174 1.633-.302 1.956-1.066l-.094-.393z" fill="#CBCFD7"/><path d="M11.726 33.143c-.13.37-.48.585-.783.479-.303-.107-.443-.493-.312-.863.13-.37.48-.585.783-.48.302.107.442.493.312.864z" fill="#667290"/></svg>