<svg width="74" height="42" fill="none" xmlns="http://www.w3.org/2000/svg"><path d="M61.107 23.678c-2.571-.694-6.78-.694-9.352 0L4.873 35.092c-6.877 1.29 13.765 8.308 21.58 6.658 1.466-.309 3.262-.705 6.78-1.617 6.991-1.81 25.825-6.765 30.133-8.194 5.891-1.954 8.717-2.796 9.541-3.358.826-.562 1.138-1.41-1.435-2.105l-10.365-2.798z" fill="#576485"/><path d="M56.561 22.352c-.893 3.358.361 6.613 2.8 7.271 2.44.659 5.143-1.53 6.035-4.887.893-3.357-.36-6.612-2.8-7.27-2.44-.66-5.141 1.528-6.035 4.886z" fill="#020206"/><path d="M59.363 29.624l3.602.972 3.234-12.158-3.601-.972-3.235 12.158zm-39.196 2.498c-.893 3.357.36 6.612 2.8 7.27 2.44.66 5.142-1.529 6.035-4.886.893-3.358-.361-6.613-2.8-7.271-2.44-.659-5.142 1.529-6.035 4.887z" fill="#020206"/><path d="M22.969 39.393l3.601.972 3.234-12.158-3.6-.972-3.235 12.158z" fill="#020206"/><path d="M69.416 24.18l-6.05-.15-26.201 6.235-4.145 5.273-8.993-1.473.886-7.69L66.77 14.752l3.67 5.864-1.023 3.563z" fill="#020206"/><path d="M13.878 12.752l-3.038 2.763s.199-1.928.797-2.556c.902-.947 2.241-.208 2.241-.208z" fill="#EBEDF0"/><path d="M68.861 10.123c-1.918-2.835-4.905-5.874-4.905-5.874C60.052 2.98 52.22.565 46.11.088c-6.13-.48-11.592 1.087-17.288 2.682C19.411 5.404 10.84 15.515 10.84 15.515s-4.82 2.447-7.973 4.997C-.51 23.245-.6 30.308 1.033 32.925c1.858 2.974 15.178 5.116 18.637 5.088 1.921-.059 2.273-.211 2.273-.211l.686-.182a18.25 18.25 0 01.3-4.796c.769-3.887 3.999-6.49 6.666-6.05 2.54.42 4.267 3.49 3.425 9.022l3.84-1.813c6.333-2.137 11.652-3.907 19.198-5.48l2.81-.388c0-1.726.12-3.246.587-5.148.945-3.838 4.133-6.196 6.727-5.496 2.444.66 3.651 3.416 3.233 6.707 1.096-.567.717-.24 1.057-1.244.612-1.805 1.006-4.176.916-5.099-.044-.452.001-1.335-.608-1.62-.782-2.927-1.055-4.818-1.919-6.095v.003z" fill="#EBEDF0"/><mask id="a" style="mask-type:luminance" maskUnits="userSpaceOnUse" x="0" y="0" width="72" height="39"><path d="M68.861 10.123c-1.918-2.835-4.905-5.874-4.905-5.874C60.052 2.98 52.22.565 46.11.088c-6.13-.48-11.592 1.087-17.288 2.682C19.411 5.404 10.84 15.515 10.84 15.515s-4.82 2.447-7.973 4.997C-.51 23.245-.6 30.308 1.033 32.925c1.858 2.974 15.178 5.116 18.637 5.088 1.921-.059 2.273-.211 2.273-.211l.686-.182a18.25 18.25 0 01.3-4.796c.769-3.887 3.999-6.49 6.666-6.05 2.54.42 4.267 3.49 3.425 9.022l3.84-1.813c6.333-2.137 11.652-3.907 19.198-5.48l2.81-.388c0-1.726.12-3.246.587-5.148.945-3.838 4.133-6.196 6.727-5.496 2.444.66 3.651 3.416 3.233 6.707 1.096-.567.717-.24 1.057-1.244.612-1.805 1.006-4.176.916-5.099-.044-.452.001-1.335-.608-1.62-.782-2.927-1.055-4.818-1.919-6.095v.003z" fill="#fff"/></mask><g mask="url(#a)"><path d="M41.184 8.838c-8.501-.84-14.107-2.407-16.72-4.465-5.454 3.003-9.607 6.638-13.628 11.142 0 2.259 8.223 4.93 19.5 5.191 4.076-6.412 7.451-9.636 10.849-11.869z" fill="#020206"/><path d="M11.973 15.431c2.236 2.616 8.606 3.783 18.267 4.42 0 0 1.8-2.47-5.77-4.201-8.071-1.845-12.497-.22-12.497-.22v.002zm13.015-6.707l3.947 1.058 1.497-1.369-3.945-1.057-1.499 1.368z" fill="#263762"/><path opacity=".2" d="M-1.759 29.826c-.296-9.014 10.384-11.362 17.36-11.503C20.323 13.248 34.498-.839 51.25.823l6.2-1.684-9.59-1.082L28.09.867-5.08 24.394l3.32 5.433z" fill="#fff"/><path d="M-2.492 32.035s1.186-4.852 1-3.396c-.672 5.279 15.611 7.792 18.892 8.018 1.87.13 2.356-2.946 2.897-5.136.399-1.616.267-3.775 4.997-6.64.992-.6 2.48-1.296 6.81-2.441 24.405-6.453 35.04-11.943 35.994-12.582.954-.64 3.975-3.257 3.975-3.257l6.795 20.618L16.43 42.392l-18.537-6.854-.385-3.503z" fill="#C4C9D2"/></g><path d="M69.453 17.001l1.325-.784c-.26-2.643-1.111-4.295-1.111-4.295s-.764 2.531-.214 5.078v.001zm-19.864 1.29l2.948-1.003-.128.702-2.999 1.042.179-.74z" fill="#667290"/><path d="M31.938 21.175c10.81-3.277 20.02-5.549 29.765-9.613.255-.106 1.406-.64 1.584-.756.61-.399-2.502-5.042-3.48-5.14-2.173-.217-6.941-.48-10.98.844-11.686 3.83-16.89 14.665-16.89 14.665z" fill="#020206"/><path d="M51.254 6.82l.757 7.966 1.947-.642-.936-7.646-1.768.322z" fill="#263762"/><path opacity=".2" d="M33.277 20.33c16.2-12.018 28.66-10.927 28.66-10.927-.705-1.126-1.88-2.812-2.685-2.939-.805-.127-6.116-.468-9.549.663-10.78 3.55-16.426 13.203-16.426 13.203z" fill="#fff"/><path d="M33.454 21.324s.062-.156.722.295c.72.491 3.325 1.032 3.986.766.926-.372.996-1.35.653-1.717-1.063-1.135-1.875-1.115-2.273-1.091-.399.023-3.089 1.747-3.089 1.747z" fill="#BEC3CD"/><path d="M32.406 21s2.005-2.133 2.945-2.151c.73-.014 2.437.055 2.832 1.03.396.975-.798 1.5-2.314 1.813-1.517.314-2.553.075-2.92-.124-.368-.2-.543-.568-.543-.568z" fill="#EBEDF0"/><mask id="b" style="mask-type:luminance" maskUnits="userSpaceOnUse" x="32" y="18" width="7" height="4"><path d="M32.41 20.999s2.005-2.133 2.945-2.15c.73-.015 2.437.054 2.832 1.03.396.974-.798 1.5-2.314 1.813-1.517.313-2.553.075-2.92-.125-.368-.2-.543-.567-.543-.567v-.001z" fill="#fff"/></mask><g mask="url(#b)"><path d="M37.306 18.93s.13 1.058-1.567 1.467c-.882.213-3.676.645-3.676.645l.68 1.243 5.617.107.727-2.435-1.027-1.398-.754.37z" fill="#C4C9D2"/></g><path d="M31.934 21.175c1.237 1.326 2.613 11.07 3.388 10.86.774-.208 14.56-4.183 16.341-4.8 1.781-.617 1.824-6.692 1.868-9.886.022-1.668-.474-2.425-.474-2.425s-.612-5.994-.977-8.85M30.353 20.616s-.706.935-1.512 1.377c-.894.491-8.962 4.242-8.962 4.242m50.9-10.018l-3.283 1.942m-47.617 8.076s4.461.046 5.188 2.404M40.98 8.879c3.73-2.322 10.112-5.34 22.818-4.636" stroke="#020206" stroke-width=".5" stroke-miterlimit="10"/><path d="M13.648 34.353c.47-.05-.644-1.718-.804-2.017-1.354-2.542-4.222-2.91-7.104-3.69-2.584-.698-3.046.287-3.385.782-.13.191-.627 1.164-.318 1.403.716.554 2.367 1.272 4.755 1.96 2.585.746 6.31 1.62 6.856 1.562zm2.485-8.35c-5.281-1.095-9.23-2.107-12.692-3.352l-.28 2.379c1.485.765 6.853 2.416 11.519 3.081l1.453-2.107z" fill="#CBCFD7"/><path d="M8.935 25.62c-.163.341-.52.51-.798.378-.278-.133-.372-.516-.21-.857.163-.34.52-.51.799-.377.278.132.372.515.209.857zm4.942 2.452s3.428.954 5.463-.837c2.036-1.791.118-2.616-2.526-2.196-2.57.408-4.524 2.793-2.937 3.032zM3.09 24.994S.704 24.637.903 23.457c.156-.922.928-2.002 1.43-2.45.457-.407.807.215 1.258.772.934 1.156.937 3.43-.5 3.215z" fill="#667290"/><path d="M4.883 31.698l5.085 1.363v-2.14l-5.085-1.363v2.14z" fill="#020206"/><path d="M4.563 31.77l5.085 1.362v-2.14l-5.085-1.363v2.14z" fill="#fff"/><path d="M60.012 23.29c-.898 3.353.363 6.604 2.817 7.261 2.454.658 5.172-1.527 6.07-4.88.898-3.352-.363-6.603-2.817-7.26-2.454-.658-5.172 1.526-6.07 4.88z" fill="#263762"/><path d="M67.612 25.326c.637-2.38-.258-4.688-2-5.155-1.742-.467-3.671 1.085-4.309 3.465-.638 2.38.258 4.688 2 5.154 1.742.467 3.67-1.084 4.309-3.464z" fill="#020206"/><path d="M63.731 24.287c-.147.548.06 1.079.46 1.186.4.107.844-.25.991-.797.147-.548-.059-1.079-.46-1.186-.4-.107-.844.25-.991.797z" fill="#263762"/><path d="M64.78 21.541l-.634.17c-.243.066-.443-.095-.443-.356v-.102c0-.262.2-.53.443-.594l.634-.17c.244-.066.443.095.443.356v.102c0 .262-.2.53-.443.594zm0 6.733l-.634.17c-.243.066-.443-.095-.443-.356v-.103c0-.261.2-.529.443-.594l.634-.17c.244-.065.443.095.443.356v.103c0 .262-.2.529-.443.594zm-2.62-3.67v.958a.62.62 0 01-.428.572c-.235.063-.427-.091-.427-.343v-.959a.62.62 0 01.427-.572c.235-.063.428.092.428.344zm5.46-1.464v.959a.62.62 0 01-.427.572c-.235.063-.427-.091-.427-.343v-.959a.62.62 0 01.427-.572c.235-.063.428.091.428.343zm-5.028 3.534l.49.473c.161.155.161.479 0 .72l-.019.03c-.16.241-.424.312-.585.156l-.49-.473c-.16-.155-.16-.48 0-.72l.02-.03c.16-.241.423-.312.584-.156zm3.859-5.796l.49.473c.161.155.161.48 0 .72l-.019.03c-.16.241-.423.312-.585.157l-.49-.474c-.16-.155-.16-.479 0-.72l.02-.03c.16-.241.423-.312.584-.156zm-.604 5.527l.49-.736c.16-.242.424-.313.585-.157l.02.018c.16.156.16.48 0 .721l-.49.737c-.161.241-.424.312-.586.157l-.02-.02c-.16-.154-.16-.479 0-.72zm-3.859-3.725l.49-.737c.16-.241.424-.312.585-.156l.02.018c.16.156.16.48 0 .721l-.491.737c-.16.241-.424.312-.585.156l-.02-.018c-.16-.156-.16-.48 0-.721z" fill="#0D204F"/><path d="M23.676 33.078c-.898 3.353.363 6.604 2.817 7.261 2.454.658 5.172-1.527 6.07-4.88.898-3.352-.363-6.603-2.817-7.26-2.454-.658-5.172 1.526-6.07 4.88z" fill="#263762"/><path d="M31.276 35.114c.637-2.38-.258-4.688-2-5.155-1.742-.467-3.671 1.084-4.309 3.464-.637 2.38.258 4.688 2 5.155 1.742.467 3.67-1.084 4.309-3.464z" fill="#020206"/><path d="M27.395 34.075c-.147.547.06 1.078.46 1.185.4.107.844-.25.991-.797.147-.547-.059-1.078-.46-1.186-.4-.107-.844.25-.99.797z" fill="#263762"/><path d="M28.444 31.329l-.634.17c-.243.065-.443-.095-.443-.356v-.103c0-.262.2-.529.443-.594l.634-.17c.244-.065.443.095.443.356v.103c0 .262-.2.529-.443.594zm0 6.732l-.634.17c-.243.066-.443-.095-.443-.356v-.102c0-.262.2-.53.443-.594l.634-.17c.244-.066.443.095.443.356v.102c0 .262-.2.53-.443.594zm-2.62-3.67v.959a.62.62 0 01-.428.572c-.235.063-.427-.092-.427-.344v-.958a.62.62 0 01.427-.572c.235-.064.428.091.428.343zm5.465-1.463v.958a.62.62 0 01-.428.572c-.235.063-.427-.091-.427-.343v-.959a.62.62 0 01.427-.572c.235-.063.428.092.428.344zm-5.033 3.532l.49.474c.161.155.161.48 0 .72l-.019.03c-.16.242-.424.312-.585.157l-.49-.474c-.16-.155-.16-.479 0-.72l.02-.03c.16-.24.423-.311.584-.156zm3.86-5.795l.49.473c.16.155.16.48 0 .721l-.02.03c-.16.24-.423.311-.584.156l-.491-.473c-.16-.155-.16-.48 0-.721l.02-.03c.16-.24.423-.311.585-.156zm-.605 5.528l.49-.736c.161-.242.424-.312.585-.157l.02.019c.16.155.16.479 0 .72l-.49.737c-.161.241-.424.312-.585.157l-.02-.02c-.16-.154-.16-.478 0-.72zm-3.859-3.726l.49-.736c.16-.242.424-.312.585-.157l.02.019c.16.155.16.479 0 .72l-.49.737c-.161.241-.425.312-.586.157l-.02-.02c-.16-.154-.16-.478 0-.72z" fill="#0D204F"/></svg>