<svg width="96" height="48" fill="none" xmlns="http://www.w3.org/2000/svg"><path d="M52.779 28.74c-2.286-.618-6.025-.618-8.31 0L7.575 37.89c-6.111 1.149 12.23 7.405 19.175 5.936 1.302-.276 2.899-.63 6.023-1.441 6.213-1.615 18.185-5.005 22.012-6.278 5.235-1.742 7.746-2.493 8.479-2.994.732-.502 1.01-1.258-1.276-1.877l-9.21-2.494z" fill="#576485"/><path d="M50.952 27.354c-.796 3.004.322 5.915 2.497 6.505 2.176.589 4.585-1.369 5.381-4.372.797-3.003-.321-5.915-2.497-6.504-2.175-.59-4.584 1.368-5.38 4.371z" fill="#020206"/><path d="M53.45 33.859l3.21.869 2.884-10.876-3.21-.87-2.885 10.877zm-31.943 1.266c-.797 3.004.321 5.915 2.497 6.505 2.175.589 4.585-1.369 5.381-4.372.796-3.003-.321-5.915-2.497-6.504-2.176-.59-4.584 1.368-5.38 4.371h-.001z" fill="#020206"/><path d="M24.004 41.63l3.21.87 2.884-10.877-3.21-.869-2.884 10.876z" fill="#020206"/><path d="M62.416 28.77l-2.39-.882-23.362 5.577-3.696 4.716-8.019-1.317.79-6.879L61.217 21.6l1.495 4.669-.295 2.501z" fill="#020206"/><path d="M14.183 15.978L11.8 18.512s-.149-1.787.385-2.348c.804-.846 1.998-.185 1.998-.185v-.001z" fill="#EBEDF0"/><path d="M59.377 13.314c-1.71-2.535-5.16-6.29-5.16-6.29-3.977-1.302-7.391-2.227-11.278-2.89-3.463-.59-14.434.175-21.04 3.595-2.373 1.228-6.75 6.21-10.311 10.753-3.533 2.012-4.395 3.277-4.939 5.694C3.2 25.654 3.232 35.05 6.09 36.403c3.279 1.55 10.981 3.652 14.973 3.993 1.713-.053 2.027-.189 2.027-.189l.612-.163c-.089-1.4-.03-2.782.267-4.29.685-3.477 3.566-5.806 5.944-5.412 2.265.375 3.805 3.122 3.054 8.07l3.423-1.622c5.648-1.912 7.385-2.747 14.113-4.154l2.505-.347c0-1.544.106-2.904.524-4.606.843-3.433 3.686-5.542 5.998-4.916 2.18.59 3.256 3.056 2.883 6 1.296-1.908.305-6.367.094-7.168-.387-1.465-1.005-2.272-1.803-3.118-.26-2.074-.558-4.027-1.329-5.169l.002.002z" fill="#EBEDF0"/><mask id="a" style="mask-type:luminance" maskUnits="userSpaceOnUse" x="4" y="3" width="60" height="38"><path d="M59.377 13.314c-1.71-2.535-5.16-6.29-5.16-6.29-3.977-1.302-7.391-2.227-11.278-2.89-3.463-.59-14.434.175-21.04 3.595-2.373 1.228-6.75 6.21-10.311 10.753-3.533 2.012-4.395 3.277-4.939 5.694C3.2 25.654 3.232 35.05 6.09 36.403c3.279 1.55 10.981 3.652 14.973 3.993 1.713-.053 2.027-.189 2.027-.189l.612-.163c-.089-1.4-.03-2.782.267-4.29.685-3.477 3.566-5.806 5.944-5.412 2.265.375 3.805 3.122 3.054 8.07l3.423-1.622c5.648-1.912 7.385-2.747 14.113-4.154l2.505-.347c0-1.544.106-2.904.524-4.606.843-3.433 3.686-5.542 5.998-4.916 2.18.59 3.256 3.056 2.883 6 1.296-1.908.305-6.367.094-7.168-.387-1.465-1.005-2.272-1.803-3.118-.26-2.074-.558-4.027-1.329-5.169l.002.002z" fill="#fff"/></mask><g mask="url(#a)"><path d="M36.074 11.54c-5.643-1.007-11.477-2.48-15.668-4.083 0 0-7.313 7.724-8.816 11.025 1.601 2.328 7.25 4.006 16.499 4.006 3.883-6.15 7.921-10.86 7.984-10.948z" fill="#020206"/><path d="M12.344 18.271c1.951 2.186 7.273 3.064 15.557 3.738 0 0 .898-1.59-5.593-3.42-6.92-1.95-9.964-.318-9.964-.318zm11.234-7.122l3.315.891 1.1-1.197-3.316-.891-1.099 1.197z" fill="#263762"/><path d="M1.305 35.048s1.057-4.34.892-3.038c-.6 4.722 16.619 6.984 19.545 7.187 1.666.116-.536-4.06 1.514-8.443.957-2.044 5.956-5.323 9.826-6.313 21.177-5.415 24.964-9.759 26.408-10.948.792-.651 8.302-1.196 8.302-1.196l6.06 18.443-55.675 13.573L1.648 38.18l-.343-3.133z" fill="#C4C9D2"/><path opacity=".2" d="M16.215 21.15c1.473-4.378 6.305-10.978 8.442-12.27 2.912-1.76 14.478-4.6 22.518-4.15l2.529-.42-9.822-2.553-19.46 4.366-17.41 16.163s7.066-3.155 13.203-1.137v.001z" fill="#fff"/></g><path d="M59.292 17.953c1.059.545 1.415.53 1.415.53-.067-2.366-.667-4.315-1.216-4.99 0 0-1.082 4.006-.199 4.46z" fill="#667290"/><path d="M30.59 22.93c9.477-2.365 22.002-6.133 23.883-8.065.455-.466-2.962-5.985-4.492-6.227-3.016-.477-8.505 1.35-11.495 3.039-2.71 1.53-5.808 7.1-7.896 11.254z" fill="#020206"/><path d="M6.115 28.137c-.547-.077-.365 1.268-.295 2.11.123 1.481 1.138 2.454 5.998 3.642 4.69 1.146 6.389 1.106 7.136-.136.14-.232.725-1.95.306-2.128-1.25-.532-4.022-1.327-7.494-2.22-3.042-.782-4.314-1.08-5.651-1.268z" fill="#CBCFD7"/><path opacity=".2" d="M49.482 9.36c-.679-.076-8.38.926-11.451 3.8-2.415 2.26-5.351 8.178-5.351 8.178 6.66-5.282 13.27-7.845 19.505-8.945 0 0-2.023-2.958-2.703-3.035v.001z" fill="#fff"/><path d="M9.219 32.3l4.809 1.293v-2.031l-4.81-1.293v2.03z" fill="#020206"/><path d="M8.918 32.367l4.81 1.293v-2.03l-4.81-1.294v2.031z" fill="#fff"/><path d="M32.148 22.57c1.738 1.146 2.184 12.665 2.874 12.478.69-.187 12.697-3.62 14.175-4.422 2-1.085 4.809-9.476 5.315-14.08m-3.509.177l-3.331-7.181M35.347 21.6l-.894-3.656m-6.396 4.552s-.63.836-1.349 1.232c-.798.44-2.056.94-2.056.94m36.053-6.186c.589 1.974-.26 4.68-.26 4.68m-39.395 4.76s3.982.933 4.825 4.088M36.07 11.54c2.486-1.864 10.197-4.6 18.147-4.515M7.496 24.974c2.4 1.191 5.999 2.212 11.19 3.008" stroke="#020206" stroke-width=".5" stroke-miterlimit="10"/><path d="M51.004 16.723s.849.918 1.334.812c.725-.157 2.174-.988 2.174-.988.004-.56.004-1.078-.037-1.682l-3.471 1.858zM13.02 25.767c-.144.305-.463.456-.711.338-.249-.12-.332-.462-.187-.767.144-.305.463-.456.711-.337.249.118.332.461.187.766zm4.261 2.105c2.872.707 4.638-.142 6.375-.99 2.453-1.197 1.39-3.085-1.261-2.375-1.722.461-6.349 3.061-5.114 3.365zm-9.379-2.421c-.672-.378-1.531-.653-1.318-1.919.167-.989 1.147-2.303 1.683-2.783.489-.437.422 1.154.45 1.886.068 1.731.037 3.296-.815 2.816z" fill="#667290"/><path d="M33.082 22.025s.056-.14.644.263c.641.44 2.965.923 3.554.686.825-.333.888-1.21.582-1.537-.948-1.015-1.672-.996-2.026-.975-.356.02-2.754 1.563-2.754 1.563z" fill="#BEC3CD"/><path d="M32.148 21.735s1.788-1.908 2.626-1.924c.652-.012 2.173.05 2.526.92.352.873-.712 1.342-2.064 1.622s-2.277.067-2.604-.111c-.328-.179-.484-.508-.484-.508z" fill="#EBEDF0"/><mask id="b" style="mask-type:luminance" maskUnits="userSpaceOnUse" x="32" y="19" width="6" height="4"><path d="M32.148 21.735s1.788-1.908 2.626-1.924c.652-.012 2.173.05 2.526.92.352.873-.712 1.342-2.064 1.622s-2.277.067-2.604-.111c-.328-.179-.484-.508-.484-.508z" fill="#fff"/></mask><g mask="url(#b)"><path d="M36.515 19.884s.117.946-1.396 1.313c-.787.19-3.28.577-3.28.577l.607 1.111 5.009.096.649-2.178-.916-1.25-.673.33z" fill="#C4C9D2"/></g><path d="M54.032 28.226c-.801 3.02.323 5.95 2.511 6.542 2.188.592 4.611-1.376 5.413-4.397.8-3.02-.324-5.95-2.512-6.542-2.188-.592-4.611 1.376-5.412 4.396z" fill="#263762"/><path d="M55.037 28.497c-.599 2.256.242 4.443 1.875 4.885 1.633.443 3.443-1.027 4.04-3.282.599-2.256-.241-4.443-1.875-4.885-1.633-.443-3.443 1.027-4.04 3.282z" fill="#020206"/><path d="M57.347 29.123c-.13.493.053.972.41 1.069.357.097.753-.225.884-.718.13-.494-.053-.972-.41-1.069-.357-.097-.753.225-.884.718z" fill="#263762"/><path d="M58.932 27.25c.276-.717.078-1.461-.442-1.662-.52-.202-1.164.216-1.44.933-.276.717-.078 1.461.442 1.662.52.201 1.165-.216 1.44-.933zm.004 4.826c.276-.717.078-1.461-.442-1.662-.52-.202-1.164.216-1.44.933-.276.717-.078 1.461.442 1.662.52.202 1.165-.216 1.44-.933zm-1.953-1.889c.276-.717.078-1.461-.442-1.663-.52-.2-1.165.217-1.44.934-.276.717-.078 1.46.442 1.662.52.201 1.165-.217 1.44-.933zm3.903-1.049c.275-.717.077-1.461-.443-1.663-.52-.2-1.164.217-1.44.934-.276.717-.078 1.46.442 1.662.52.201 1.165-.217 1.44-.933z" fill="#020206"/><path d="M24.637 35.933c-.8 3.02.324 5.95 2.512 6.542 2.188.593 4.61-1.376 5.412-4.396.801-3.021-.323-5.95-2.511-6.543-2.188-.592-4.612 1.376-5.413 4.397z" fill="#263762"/><path d="M25.642 36.205c-.598 2.255.242 4.442 1.875 4.885 1.634.442 3.444-1.028 4.041-3.283.599-2.255-.242-4.442-1.875-4.885-1.634-.443-3.443 1.028-4.04 3.283z" fill="#020206"/><path d="M27.952 36.83c-.13.494.053.972.41 1.07.357.096.753-.226.884-.72.13-.492-.052-.971-.41-1.068-.357-.096-.753.225-.884.718z" fill="#263762"/><path d="M29.538 34.957c.276-.717.078-1.46-.442-1.662-.52-.201-1.165.217-1.44.934-.276.716-.078 1.46.442 1.662.52.2 1.164-.217 1.44-.934zm0 4.826c.276-.717.078-1.46-.442-1.662-.52-.201-1.165.217-1.44.933-.276.717-.078 1.461.442 1.663.52.2 1.164-.217 1.44-.934zm-2.891-3.57c.588-.158 1.065.304 1.065 1.03 0 .728-.477 1.446-1.065 1.604-.588.159-1.065-.303-1.065-1.03 0-.727.477-1.445 1.065-1.604zm4.844.633c.276-.717.078-1.461-.442-1.663-.52-.2-1.165.217-1.44.934-.276.717-.078 1.46.442 1.662.52.201 1.164-.217 1.44-.934z" fill="#020206"/></svg>